<svg xmlns="http://www.w3.org/2000/svg" viewBox="0 0 601 451" version="1.0"><path style="color:#000;stroke:#000;fill:#fff" d="M38 .5h525c20.78 0 37.5 16.725 37.5 37.5v375c0 20.78-16.72 37.5-37.5 37.5H38C17.225 450.5.5 433.78.5 413V38C.5 17.225 17.225.5 38 .5z"/><path style="color:#000;fill:#006b54" d="M38 13h525c13.85 0 25 11.15 25 25v375c0 13.85-11.15 25-25 25H38c-13.85 0-25-11.15-25-25V38c0-13.85 11.15-25 25-25z"/><path style="fill-rule:evenodd;fill:#fff" clip-rule="evenodd" d="m-181.11 219.15 22.91-4.15-14.44-20.8c-7.48 7.23-8.41 15.92-8.47 24.95zm-6.3 1.52c-.04-.9-.17-2.35-.17-3.37 0-10.29 3-20.3 11.15-28.61l-8.48-11.27-13.14 44.45 10.64-1.2zm-50.41-44.24.73-2.47 46.78-.07-12.45 41.85-.54-4.37h1.44l-.18-2.77h-6.26l.17 2.58h1.61l.36 4.76s-31.48-39.31-31.66-39.51zm-20.72 40.2c6.28-5.53 11.17-10.81 14.7-21.36 5.56 5.6 8.74 13.7 8.74 22.03 0 16.56-12.17 30.06-27.1 30.06-14.92 0-27.09-13.5-27.09-30.06 0-16.55 12.17-30.05 27.09-30.05 4.77 0 9.63 1.52 13.56 4.09-2.66 9.32-5.24 14.12-13.42 21.42-1.98.1-3.49 1.86-3.49 3.97 0 2.19 1.61 3.97 3.58 3.97s3.43-1.78 3.43-4.07zm78.39 8.9c3.06 12.67 13.97 21.83 26.03 21.83 14.92 0 27.1-13.5 27.1-30.06 0-16.55-12.18-30.05-27.1-30.05-4.76 0-10.27 1.24-14.29 3.86l14.7 21.65c1.8.04 3.37 1.82 3.37 3.97 0 2.19-1.61 3.97-3.58 3.97-.54 0-1.12-.15-1.6-.41l-24.63 5.24zm-66.55-41.14 9.59-29.37-3.04-5.76 6.08-7.34h13.06l.18 4.17h-11.45l-2.32 2.77 2.68 5.36-3.37 13.27h46.86l.72-2.43c-3.77-.54-10.26-3.12-11.81-4.61-1.56-1.5-.2-2.87 1.57-2.93 9.25-.44 22.99-1.3 25.6-1.31 2.61-.02 2.88 1.44 1.13 3.56-1.74 2.12-3.27 4.03-9.89 5.17l-1.79 5.36 11.09 15.24c5.23-3.52 11.55-5.35 17.69-5.35 18.43 0 33.46 16.67 33.46 37.11 0 20.45-15.03 37.12-33.46 37.12-15.16 0-28.49-11.6-32.41-27.63l-10.19 2.03c-.44 1.33-1.45 2.36-2.67 3.16l1.82 9.56h2.32l.18 2.58-7.33.39v-2.77h1.79l-2.22-9.56c-3.29-.6-5.02-3.73-4.04-6.84l-33.29-41.76-1.49 4.48c8.08 7.06 12.91 17.93 12.91 29.24 0 20.45-15.03 37.12-33.46 37.12s-33.46-16.67-33.46-37.12c0-20.44 15.03-37.11 33.46-37.11 5.36 0 10.85 1.45 15.5 4.2z" transform="matrix(2.5358 0 0 2.3333 828.354 -293.144)"/><path style="fill:#fff" d="M105.09 392.51c0 2.84-.52 5.51-1.57 8.01-1.04 2.5-2.48 4.66-4.308 6.49s-3.954 3.29-6.379 4.37c-2.426 1.08-5.02 1.62-7.782 1.62H63v-75h23.619c2.537 0 4.85.47 6.94 1.4 2.089.93 3.88 2.26 5.373 3.98 1.488 1.71 2.668 3.76 3.528 6.15s1.29 5.04 1.29 7.95c0 1.72-.13 3.23-.4 4.53a15.98 15.98 0 0 1-1.28 3.81c-.6 1.23-1.4 2.48-2.41 3.75-1.008 1.27-2.258 2.68-3.75 4.25 2.836 2.39 5.07 5.13 6.72 8.23 1.64 3.1 2.46 6.59 2.46 10.46zm-11.868-35.03c0-3.14-.634-5.41-1.903-6.83-1.268-1.42-3.358-2.12-6.268-2.13H73.747v20.04h11.304c2.537 0 4.533-.99 5.988-2.97 1.455-1.97 2.183-4.68 2.183-8.11zm1.346 34.25c0-1.79-.261-3.45-.784-4.98s-1.232-2.87-2.128-4.03-1.96-2.05-3.191-2.69a8.374 8.374 0 0 0-3.862-.95H73.747v23.4h10.856c3.061 0 5.487-.97 7.278-2.91s2.687-4.55 2.687-7.84zM117.66 413v-75h10.52v75h-10.52zm57.89 0-13.21-36.6-6.83 12.65V413h-10.74v-75h10.74v30l17.13-30h12.43l-15.56 26.31L186.86 413h-11.31zm23.87 0v-75h35.27v10.52h-24.52v18.92h15.56v10.3h-15.56v24.74h27.43V413h-38.18zM317.45 413l-9.96-35.26h-10.3V413h-10.74v-75h22.39c2.91 0 5.57.49 8 1.46s4.51 2.31 6.27 4.03c1.75 1.71 3.09 3.82 4.03 6.32.93 2.5 1.4 5.24 1.4 8.23 0 4.48-.9 8.28-2.69 11.42-1.79 3.13-4.48 5.37-8.06 6.71L328.54 413h-11.09zm.56-54.96c0-2.91-.89-5.22-2.68-6.94s-4.14-2.57-7.05-2.58h-11.09v18.92h11.09c3.13 0 5.54-.8 7.22-2.41 1.68-1.6 2.51-3.93 2.51-6.99zm65.74 17.35c0 5.74-.31 10.63-.95 14.66-.63 4.03-1.73 7.84-3.3 11.42-1.87 4.48-4.2 7.74-7 9.79-2.79 2.06-6.32 3.08-10.57 3.08-4.48 0-8.12-1.02-10.92-3.08-2.8-2.05-5.13-5.31-7-9.79a48.864 48.864 0 0 1-3.3-11.47c-.63-4-.95-8.87-.95-14.61 0-5.67.32-10.54.95-14.61.64-4.07 1.74-7.89 3.3-11.47 1.95-4.48 4.31-7.71 7.11-9.69 2.8-1.97 6.4-2.96 10.81-2.96 4.32 0 7.87.99 10.63 2.96 2.76 1.98 5.07 5.29 6.94 9.91.74 1.87 1.4 3.73 1.96 5.6.56 1.86 1.01 3.82 1.34 5.87.34 2.06.58 4.26.73 6.61s.22 4.94.22 7.78zm-10.3 0c0-2.09-.05-3.99-.16-5.71s-.26-3.3-.45-4.76c-.19-1.45-.43-2.85-.73-4.19-.3-1.35-.63-2.69-1.01-4.03-.97-3.36-2.18-5.79-3.63-7.28-1.46-1.49-3.31-2.24-5.54-2.24-4.63 0-7.8 3.1-9.52 9.29-.9 2.84-1.51 5.69-1.85 8.56-.33 2.88-.5 6.4-.5 10.58 0 2.02.06 3.86.17 5.54s.26 3.25.45 4.71c.18 1.45.43 2.89.72 4.31.3 1.41.64 2.87 1.01 4.36 1.72 6.19 4.89 9.29 9.52 9.29 2.23 0 4.08-.75 5.54-2.24 1.45-1.49 2.66-3.84 3.63-7.05.45-1.49.82-2.93 1.12-4.31s.54-2.81.73-4.31c.19-1.49.32-3.08.39-4.76.08-1.68.11-3.6.11-5.76zm67.46 15.22c0 1.5-.05 2.84-.17 4.03-.11 1.2-.28 2.3-.5 3.3-.22 1.01-.52 2-.9 2.97-.37.97-.82 1.94-1.34 2.91-1.86 3.06-4.42 5.58-7.67 7.56-3.24 1.97-6.66 2.96-10.24 2.96-3.73 0-7.26-.97-10.58-2.91s-5.91-4.48-7.78-7.61c-.52-.97-.97-1.94-1.34-2.91s-.67-1.96-.9-2.97c-.22-1-.39-2.1-.5-3.3-.11-1.19-.17-2.53-.17-4.03V338h10.75v53.96c0 3.58.97 6.45 2.91 8.61 1.94 2.17 4.48 3.25 7.61 3.25 2.91 0 5.32-1.08 7.22-3.25 1.9-2.16 2.85-5.03 2.85-8.61V338h10.75v52.61zm34.98-42.65V413h-10.86v-65.04h-13.65V338h38.17v9.96h-13.66zM499.83 413v-75h35.26v10.52h-24.51v18.92h15.56v10.3h-15.56v24.74H538V413h-38.17z"/></svg>