<svg viewBox="0 0 72 72" xmlns="http://www.w3.org/2000/svg"><path d="M31 45a.945.945 0 0 0-1 1 9.2 9.2 0 1 1-9.2-9.2l.2-2h-.2A11.2 11.2 0 1 0 32 46a.945.945 0 0 0-1-1ZM52.8 34.8a12.271 12.271 0 0 0-3.9.7l.9 1.8a10.473 10.473 0 0 1 3-.5 9.2 9.2 0 1 1-9.1 9.7l-2-.1a11.155 11.155 0 1 0 11.1-11.6Z"/><path d="m48 38.2-.9-1.8a11.093 11.093 0 0 0-5.3 7.9l2 .1a9.375 9.375 0 0 1 4.2-6.2Z"/><path fill="none" stroke="#000" stroke-linecap="round" stroke-linejoin="round" stroke-width="2" d="M23 22h4M42 25.7h6"/><g fill="none" stroke="#000" stroke-linecap="round" stroke-linejoin="round" stroke-width="2"><path d="m21.1 46 1.7-21.4M36 45 23 30M45 30l8 16M23 30h21M46 28.4 36 45M36 45l17 1"/></g><g fill="none" stroke="#ea5a47" stroke-linecap="round" stroke-linejoin="round" stroke-width="2.1"><path d="m21.1 46 1.7-21.4M36 45 23 30M45 30l8 16M23 30h21M46 28.4 36 45M36 45l17 1"/></g></svg>